<svg width="17" height="14" viewBox="0 0 17 14" fill="none" xmlns="http://www.w3.org/2000/svg">
<path d="M14.9688 0C16.0938 0 16.9688 0.90625 16.9688 2V12C16.9688 13.125 16.0625 14 14.9688 14H2.96875C1.875 14 0.96875 13.125 0.96875 12V2C0.96875 0.90625 1.875 0 2.96875 0H14.9688ZM4.46875 2C3.65625 2 2.96875 2.6875 2.96875 3.5C2.96875 4.34375 3.59375 5 4.46875 5C5.3125 5 5.96875 4.34375 5.96875 3.5C5.96875 2.6875 5.28125 2 4.46875 2ZM14.9375 11.75C15 11.5938 15 11.375 14.9062 11.25L10.9062 5.25C10.8125 5.09375 10.6562 5 10.5 5C10.3125 5 10.1562 5.09375 10.0625 5.25L7.15625 9.625L6.125 8.21875C6.03125 8.09375 5.90625 8 5.75 8C5.5625 8 5.4375 8.09375 5.34375 8.21875L3.15625 11.2188C3.03125 11.375 3.03125 11.5625 3.09375 11.75C3.1875 11.9062 3.34375 12 3.5625 12H14.5C14.6562 12 14.8438 11.9062 14.9375 11.75Z" fill="#666666"/>
</svg>
