<svg width="14" height="16" viewBox="0 0 14 16" fill="none" xmlns="http://www.w3.org/2000/svg">
<path d="M14 10.5C14 10.9688 13.7812 11.3438 13.5 11.6562V14.1875C13.7812 14.375 14 14.6875 14 15.0312C14 15.5625 13.5312 16 13 16H3C1.3125 16 0 14.6875 0 13V3C0 1.34375 1.3125 0 3 0H12.5C13.3125 0 14 0.6875 14 1.5V10.5ZM4.46875 4C4.21875 4 4 4.25 4 4.5C4 4.78125 4.21875 5 4.46875 5H10.5C10.75 5 11 4.78125 11 4.5C11 4.25 10.75 4 10.4688 4H4.46875ZM4.46875 6C4.21875 6 4 6.25 4 6.5C4 6.78125 4.21875 7 4.46875 7H10.5C10.75 7 11 6.78125 11 6.5C11 6.25 10.75 6 10.4688 6H4.46875ZM12 14V12H3C2.4375 12 2 12.4688 2 13C2 13.5625 2.4375 14 3 14H12Z" fill="#666666"/>
</svg>
